<?xml version="1.0" standalone="no"?>
<!DOCTYPE svg PUBLIC "-//W3C//DTD SVG 20010904//EN"
 "http://www.w3.org/TR/2001/REC-SVG-20010904/DTD/svg10.dtd">
<svg version="1.0" xmlns="http://www.w3.org/2000/svg"
 width="512.000000pt" height="512.000000pt" viewBox="0 0 512.000000 512.000000"
 preserveAspectRatio="xMidYMid meet">
<metadata>
Created by potrace 1.14, written by Peter Selinger 2001-2017
</metadata>
<g transform="translate(0.000000,512.000000) scale(0.100000,-0.100000)"
fill="#000000" stroke="none">
<path d="M2485 5073 c-142 -95 -293 -220 -421 -347 -190 -191 -305 -353 -381
-540 -18 -45 -38 -80 -44 -78 -7 2 -30 18 -53 36 -126 101 -328 185 -529 220
-161 28 -563 29 -704 2 -11 -3 -43 -7 -70 -11 -114 -15 -203 -38 -207 -54 -9
-29 -24 -105 -31 -151 -3 -25 -10 -74 -16 -109 -30 -195 -30 -511 1 -683 5
-29 12 -66 14 -81 25 -148 118 -356 213 -475 114 -144 269 -249 476 -321 48
-17 87 -28 87 -26 0 2 11 0 25 -5 122 -46 487 -64 730 -36 113 14 142 18 174
26 41 11 33 17 171 -117 58 -55 134 -129 170 -164 36 -34 122 -118 193 -186
l127 -125 0 -178 0 -178 -27 -7 c-16 -4 -38 -9 -51 -11 -55 -11 -183 -70 -257
-119 -96 -63 -186 -155 -249 -252 l-46 -71 -52 20 c-81 30 -193 49 -298 50
-464 2 -862 -392 -864 -857 0 -73 12 -224 20 -236 3 -5 866 -9 1980 -9 l1974
0 1 28 c0 15 3 41 5 57 14 83 6 262 -14 347 -112 461 -569 750 -1033 653 -38
-8 -85 -22 -105 -30 -20 -8 -42 -15 -48 -15 -6 0 -34 34 -61 76 -61 93 -182
210 -277 266 -66 39 -244 108 -280 108 -17 0 -18 15 -18 181 l0 181 58 55 c31
30 153 148 271 262 117 113 231 223 253 244 25 24 46 36 56 33 10 -3 35 -8 57
-11 22 -4 47 -8 55 -10 8 -2 49 -7 90 -10 41 -4 86 -8 100 -11 35 -6 283 -5
350 1 266 25 476 90 645 200 351 230 506 657 462 1280 -10 138 -50 398 -66
423 -4 7 -43 18 -86 26 -44 9 -93 18 -110 21 -228 42 -568 51 -750 20 -127
-22 -270 -67 -365 -114 -80 -40 -122 -63 -130 -71 -3 -3 -33 -26 -66 -52 l-62
-47 -22 62 c-95 262 -321 544 -628 784 -95 74 -230 169 -255 178 -6 3 -43 -16
-82 -42z m-257 -2312 c40 -34 97 -79 127 -101 l55 -41 0 -175 c0 -147 -2 -173
-13 -162 -8 7 -109 105 -225 217 -188 181 -211 207 -207 230 4 23 14 100 21
171 1 14 2 38 3 54 1 29 3 27 84 -52 45 -44 115 -108 155 -141z m903 162 c1
-27 3 -57 4 -68 2 -11 6 -45 10 -75 3 -30 8 -60 10 -66 2 -7 -85 -97 -192
-200 -108 -104 -209 -202 -225 -217 l-28 -29 0 175 0 175 52 39 c88 64 219
176 288 247 36 36 68 66 72 66 5 0 9 -21 9 -47z"/>
</g>
</svg>
